<?xml version="1.0" encoding="UTF-8"?><svg id="Layer_2" xmlns="http://www.w3.org/2000/svg" viewBox="0 0 1118.25 237.82"><defs><style>.cls-1{fill:#101a2d;}</style></defs><g id="Layer_1-2"><path class="cls-1" d="M781.78,80.14l-3.77-12.02h-32.76l-3.77,12.02h-23.22L745.72,0h31.11l27.46,80.14h-22.51ZM772.36,49.97l-9.78-31.11h-1.89l-9.78,31.11h21.45Z"/><path class="cls-1" d="M874.53,28.52c0,9.9-3.73,15.99-11.2,18.27,4.08.87,6.89,2.55,8.43,5.07,1.53,2.52,2.3,6.09,2.3,10.72v17.56h-21.68v-13.67c0-4.16-.88-7.09-2.65-8.78-1.77-1.69-4.81-2.53-9.13-2.53h-16.26v24.98h-21.68V0h41.72c10.53,0,18.19,2.04,22.98,6.13,4.79,4.09,7.19,10.53,7.19,19.33v3.06ZM841.77,37.95c4.4,0,7.31-.63,8.72-1.89,1.41-1.26,2.12-3.97,2.12-8.13s-.71-6.87-2.12-8.13c-1.41-1.26-4.32-1.89-8.72-1.89h-17.44v20.03h17.44Z"/><path class="cls-1" d="M899.04,80.14h-21.68V0h21.68v80.14Z"/><path class="cls-1" d="M902.81,0h62.93v17.68h-41.01v13.32h39.13v17.21h-39.13v14.26h41.48v17.68h-63.4V0Z"/><path class="cls-1" d="M990.49,61.75h40.07v18.38h-61.75V0h21.68v61.75Z"/><path class="cls-1" d="M795.57,127.45c0,9.9-3.73,15.99-11.2,18.27,4.08.87,6.89,2.55,8.43,5.07,1.53,2.52,2.3,6.09,2.3,10.72v17.56h-21.68v-13.67c0-4.16-.88-7.09-2.65-8.78-1.77-1.69-4.81-2.53-9.13-2.53h-16.26v24.98h-21.68v-80.14h41.72c10.53,0,18.19,2.04,22.98,6.13,4.79,4.09,7.19,10.53,7.19,19.33v3.06ZM762.81,136.88c4.4,0,7.31-.63,8.72-1.89,1.41-1.26,2.12-3.97,2.12-8.13s-.71-6.87-2.12-8.13c-1.41-1.26-4.32-1.89-8.72-1.89h-17.44v20.03h17.44Z"/><path class="cls-1" d="M798.4,98.93h62.93v17.68h-41.01v13.32h39.13v17.21h-39.13v14.26h41.48v17.68h-63.4v-80.14Z"/><path class="cls-1" d="M927.8,98.93h32.76v80.14h-21.33v-59.51l-15.08,36.65h-23.33l-15.08-36.65v59.51h-21.33v-80.14h32.88l15.32,36.77,15.2-36.77Z"/><path class="cls-1" d="M1022.43,179.07l-3.77-12.02h-32.76l-3.77,12.02h-23.22l27.46-80.14h31.11l27.46,80.14h-22.51ZM1013,148.9l-9.78-31.11h-1.89l-9.78,31.11h21.45Z"/><path class="cls-1" d="M1115.18,127.45c0,9.9-3.73,15.99-11.2,18.27,4.08.87,6.89,2.55,8.43,5.07,1.53,2.52,2.3,6.09,2.3,10.72v17.56h-21.68v-13.67c0-4.16-.88-7.09-2.65-8.78-1.77-1.69-4.81-2.53-9.13-2.53h-16.26v24.98h-21.68v-80.14h41.72c10.53,0,18.19,2.04,22.98,6.13,4.79,4.09,7.19,10.53,7.19,19.33v3.06ZM1082.42,136.88c4.4,0,7.31-.63,8.72-1.89,1.41-1.26,2.12-3.97,2.12-8.13s-.71-6.87-2.12-8.13c-1.41-1.26-4.32-1.89-8.72-1.89h-17.44v20.03h17.44Z"/><path class="cls-1" d="M743.9,237.57l-2.1-5.77h-14.13l-2.1,5.77h-4.12l10.3-27.45h6.1l10.3,27.45h-4.24ZM734.37,213.67l-5.41,14.66h11.51l-5.37-14.66h-.73Z"/><path class="cls-1" d="M777.57,209.88h.69c4.14,0,6.94.58,8.4,1.74s2.25,3.32,2.38,6.5h-4.04c-.08-1.91-.57-3.19-1.45-3.84-.89-.65-2.76-.97-5.61-.97-2.66,0-4.46.3-5.37.89-.92.59-1.37,1.75-1.37,3.47s.5,2.93,1.49,3.47c.75.4,2.54.69,5.37.85,1.02.05,1.56.08,1.61.08,4.12.24,6.83.81,8.14,1.7s1.96,2.81,1.96,5.77v.69c0,2.8-.81,4.76-2.42,5.9-1.62,1.13-4.4,1.7-8.36,1.7h-.69c-4.31,0-7.21-.59-8.72-1.78-1.51-1.18-2.33-3.39-2.46-6.62h4.04c.08,1.97.59,3.28,1.53,3.96.94.67,2.92,1.01,5.93,1.01,2.83,0,4.72-.31,5.69-.93.97-.62,1.45-1.79,1.45-3.51,0-1.83-.48-3-1.45-3.51-.97-.51-3-.82-6.1-.93-2.18-.08-3.9-.22-5.17-.42-1.27-.2-2.37-.57-3.31-1.11s-1.59-1.27-1.96-2.2c-.36-.93-.54-2.16-.54-3.69v-.69c0-2.77.77-4.72,2.32-5.83,1.55-1.12,4.22-1.68,8.01-1.68Z"/><path class="cls-1" d="M821.05,209.88h.69c4.14,0,6.94.58,8.4,1.74s2.25,3.32,2.38,6.5h-4.04c-.08-1.91-.57-3.19-1.45-3.84-.89-.65-2.76-.97-5.61-.97-2.66,0-4.46.3-5.37.89-.92.59-1.37,1.75-1.37,3.47s.5,2.93,1.49,3.47c.75.4,2.54.69,5.37.85,1.02.05,1.56.08,1.61.08,4.12.24,6.83.81,8.14,1.7s1.96,2.81,1.96,5.77v.69c0,2.8-.81,4.76-2.42,5.9-1.62,1.13-4.4,1.7-8.36,1.7h-.69c-4.31,0-7.21-.59-8.72-1.78-1.51-1.18-2.33-3.39-2.46-6.62h4.04c.08,1.97.59,3.28,1.53,3.96.94.67,2.92,1.01,5.93,1.01,2.83,0,4.72-.31,5.69-.93.97-.62,1.45-1.79,1.45-3.51,0-1.83-.48-3-1.45-3.51-.97-.51-3-.82-6.1-.93-2.18-.08-3.9-.22-5.17-.42-1.27-.2-2.37-.57-3.31-1.11s-1.59-1.27-1.96-2.2c-.36-.93-.54-2.16-.54-3.69v-.69c0-2.77.77-4.72,2.32-5.83,1.55-1.12,4.22-1.68,8.01-1.68Z"/><path class="cls-1" d="M866.56,209.88h.81c4.52,0,7.74,1.02,9.65,3.05,1.91,2.03,2.87,5.5,2.87,10.4v1.05c0,4.9-.96,8.36-2.87,10.4-1.91,2.03-5.13,3.05-9.65,3.05h-.81c-4.52,0-7.75-1.02-9.67-3.05-1.93-2.03-2.89-5.5-2.89-10.4v-1.05c0-4.9.96-8.36,2.89-10.4,1.92-2.03,5.15-3.05,9.67-3.05ZM873.98,215.65c-1.27-1.45-3.61-2.18-7.03-2.18s-5.76.73-7.02,2.18-1.9,4.19-1.9,8.2.63,6.74,1.9,8.2c1.27,1.45,3.61,2.18,7.02,2.18s5.76-.73,7.03-2.18c1.26-1.45,1.9-4.19,1.9-8.2s-.63-6.74-1.9-8.2Z"/><path class="cls-1" d="M913.19,209.88h.85c3.88,0,6.74.74,8.6,2.22,1.86,1.48,2.84,3.85,2.95,7.11h-4.04c-.08-2.15-.72-3.65-1.92-4.48-1.2-.83-3.18-1.25-5.96-1.25-3.39,0-5.71.72-6.94,2.16-1.24,1.44-1.86,4.18-1.86,8.22s.62,6.78,1.86,8.22c1.24,1.44,3.55,2.16,6.94,2.16,2.8,0,4.8-.43,6.02-1.29s1.86-2.4,1.94-4.6h4.04c-.11,3.34-1.09,5.75-2.95,7.25-1.86,1.49-4.75,2.24-8.68,2.24h-.85c-4.5,0-7.68-1.01-9.55-3.03-1.87-2.02-2.81-5.49-2.81-10.42v-1.05c0-4.93.94-8.4,2.81-10.42,1.87-2.02,5.05-3.03,9.55-3.03Z"/><path class="cls-1" d="M951.34,237.57h-3.96v-27.45h3.96v27.45Z"/><path class="cls-1" d="M993.81,237.57l-2.1-5.77h-14.13l-2.1,5.77h-4.12l10.3-27.45h6.1l10.3,27.45h-4.24ZM984.29,213.67l-5.41,14.66h11.51l-5.37-14.66h-.73Z"/><path class="cls-1" d="M1035.08,210.12v3.55h-8.92v23.9h-3.96v-23.9h-8.96v-3.55h21.84Z"/><path class="cls-1" d="M1055.59,210.12h19.26v3.51h-15.3v8.32h14.62v3.47h-14.62v8.64h15.38v3.51h-19.34v-27.45Z"/><path class="cls-1" d="M1106.06,209.88h.69c4.14,0,6.94.58,8.4,1.74s2.25,3.32,2.38,6.5h-4.04c-.08-1.91-.57-3.19-1.45-3.84-.89-.65-2.76-.97-5.61-.97-2.66,0-4.46.3-5.37.89-.92.59-1.37,1.75-1.37,3.47s.5,2.93,1.49,3.47c.75.4,2.54.69,5.37.85,1.02.05,1.56.08,1.61.08,4.12.24,6.83.81,8.14,1.7s1.96,2.81,1.96,5.77v.69c0,2.8-.81,4.76-2.42,5.9-1.62,1.13-4.4,1.7-8.36,1.7h-.69c-4.31,0-7.21-.59-8.72-1.78-1.51-1.18-2.33-3.39-2.46-6.62h4.04c.08,1.97.59,3.28,1.53,3.96.94.67,2.92,1.01,5.93,1.01,2.83,0,4.72-.31,5.69-.93.97-.62,1.45-1.79,1.45-3.51,0-1.83-.48-3-1.45-3.51-.97-.51-3-.82-6.1-.93-2.18-.08-3.9-.22-5.17-.42-1.27-.2-2.37-.57-3.31-1.11s-1.59-1.27-1.96-2.2c-.36-.93-.54-2.16-.54-3.69v-.69c0-2.77.77-4.72,2.32-5.83,1.55-1.12,4.22-1.68,8.01-1.68Z"/><path class="cls-1" d="M0,237.58h100.96c6.01-133.48,123.44-193.58,123.44-193.58-77.18,79.09-61.02,193.58-61.02,193.58h103.76V0C56.54,0,0,237.58,0,237.58Z"/><path class="cls-1" d="M518.79,47.19c-17.91,13.34-33.44,28.58-46.82,44.48-56.36,66.89-75.15,145.91-75.15,145.91h100.99c5.99-133.48,123.43-193.57,123.43-193.57-77.19,79.09-61.04,193.57-61.04,193.57h103.76V0C603.73,0,556.11,19.44,518.79,47.19Z"/><path class="cls-1" d="M335.49,52.08c29.09,18.09,71.67,28.29,98.42,33.77C459.72,49.93,489.61,21.16,522.95,0h-244.07v237.65h115.42c-2.92-32.6-7.71-60.12-13.34-83.15-17.98-73.54-44.41-101.32-45.47-102.41Z"/></g></svg>