<svg xmlns="http://www.w3.org/2000/svg" viewBox="0 0 5459.1 1253"><defs><style>.cls-1{stroke:#000;stroke-miterlimit:10;stroke-width:21.22px;}</style></defs><g id="Layer_2" data-name="Layer 2"><g id="Layer_1-2" data-name="Layer 1"><path class="cls-1" d="M1467.35,1226.4l287.94-900.62h267.14l295.94,900.62H2144L1891.26,394.58,1640.12,1226.4ZM1660.9,972.05l1.61-126.37h455.9l1.6,126.37Z"/><path class="cls-1" d="M2281.56,704.29V568.94q35.18,0,57.59-4.81t36-20.79q13.58-16,20-49.58c4.25-22.41,2.73-136.27,2.73-175.74l142.07,79.55-2,171.08,145.14.29V704.29Zm256,522.11q-78.41,0-117.58-38.39t-39.19-124.78V666.51l157.2-.29v431.92l148.34.29v128Z"/><path class="cls-1" d="M3150.12,1242.39q-59.2,0-100.78-18.39t-68-44q-26.4-25.58-38.4-46.39t-13.6-24h-3.2L2899,1226.4H2758.2V321l168,111V712.9h3.2q1.59-4.8,12.81-27.18t36-49.59q24.78-27.2,67.18-47.2t104.78-20q97.56,0,156.76,42.39t87.19,118.37q28,76,28,180,0,99.2-27.19,174.36t-87.18,116.78Q3247.69,1242.38,3150.12,1242.39Zm-52.79-137.56q65.57,0,101.58-28t49.59-73.59a331.69,331.69,0,0,0,13.6-95.18,306.85,306.85,0,0,0-14.4-94.37q-14.4-44.78-51.19-72t-104-27.19q-59.19,0-96,24.79t-52.79,68.79q-16,44-16,100,0,57.6,16.79,101.59t54.39,69.58Q3036.53,1104.85,3097.33,1104.83Z"/><path class="cls-1" d="M3796.08,1242.39q-108.81,0-183.17-43.19T3501.74,1080q-36.82-76-36.79-173.56,0-99.18,36.79-175.17t111.17-119.17q74.39-43.2,184.76-43.19,161.57,0,245.55,92.78t84,244.75q0,94.39-35.2,171.16T3983.24,1198.4Q3909.64,1242.38,3796.08,1242.39Zm0-137.56q72,0,109.58-30.4T3956,996.84a369.44,369.44,0,0,0,0-192.75q-12.81-46.38-50.38-77.59t-109.58-31.19q-70.41,0-108,31.19t-51.18,77.59a348.23,348.23,0,0,0,0,192.75q13.58,47.2,51.18,77.59T3796.08,1104.83Z"/><path class="cls-1" d="M4442.32,1242.39q-97.59,0-157.57-41.58T4197.57,1084q-27.21-75.18-27.19-174.36,0-104,28-180t88-118.37q60-42.37,156-42.39,62.39,0,104.78,20t67.18,47.2q24.78,27.2,36,49.59t12.8,27.18h3.2V317.66l168,111.36V1226.4H4693.46l-27.18-116.78h-3.2q-1.62,3.23-13.6,24t-38.4,46.39q-26.39,25.6-68,44T4442.32,1242.39Zm52.79-137.56q60.78,0,98.38-25.6t54.39-69.58q16.8-44,16.79-101.59,0-56-16-100t-52-68.79q-36-24.79-96.78-24.79-65.61,0-103.18,27.19t-52,72a306.85,306.85,0,0,0-14.4,94.37,331,331,0,0,0,13.6,95.18q13.57,45.6,49.59,73.59T4495.11,1104.83Z"/><path class="cls-1" d="M5171.75,1242.39q-33.59,0-73.59-8.79a393.81,393.81,0,0,1-80-27.2,298.31,298.31,0,0,1-72.79-47.19,219.06,219.06,0,0,1-52-67.18q-19.2-38.4-19.2-89.58h150.37q0,1.6,2.4,20.79t15.2,42.4q12.78,23.19,41.59,40.78T5167,1124q43.2,0,70.39-11.2t40.79-28q13.57-16.8,13.6-37.6,0-35.16-29.59-55.18t-76-32.79q-46.41-12.78-98.39-26.4a516.2,516.2,0,0,1-97.57-36q-45.6-22.39-74.39-61.59T4887,733.7q0-92.76,73.59-139.17t187.15-46.39q60.78,0,114.39,13.6t95.17,43.19a220.22,220.22,0,0,1,66.39,75.18q24.78,45.6,24.79,111.18H5298.13q1.56-36.78-12-60a97.39,97.39,0,0,0-36-36,153.18,153.18,0,0,0-48-17.6,269.09,269.09,0,0,0-49.59-4.8q-57.6,0-87.19,20t-29.59,52q0,36.83,29.59,56.78t76.79,32.8q47.16,12.82,100,26.4a534.73,534.73,0,0,1,99.18,36q46.36,22.41,76,60t29.6,100q0,62.4-34.4,103.18t-96,61.58Q5254.91,1242.38,5171.75,1242.39Z"/><path d="M1110.7,221l-100-99.91L889.71,0H0V1237.65H1231.71V342Zm-100,797.6H615.85V618.67H221V218.8h394.9V618.67h394.9Z"/></g></g></svg>