<?xml version="1.0" encoding="UTF-8"?>
<svg version="1.1" xmlns="http://www.w3.org/2000/svg" width="3840" height="3840">
<path d="M0 0 C1267.2 0 2534.4 0 3840 0 C3840 1267.2 3840 2534.4 3840 3840 C2572.8 3840 1305.6 3840 0 3840 C0 2572.8 0 1305.6 0 0 Z " fill="#02A0FE" transform="translate(0,0)"/>
<path d="M0 0 C2.01263487 -0.00240918 4.02526974 -0.00482149 6.03790432 -0.00746042 C12.34761976 -0.01549978 18.65732103 -0.0180548 24.96704102 -0.01733398 C30.62787735 -0.01680379 36.28864421 -0.02381619 41.94946289 -0.0378418 C74.08963797 -0.11569314 106.15410229 0.10796635 138.25547791 1.90267944 C143.45560163 2.1931356 148.65715727 2.45142638 153.85913086 2.70629883 C166.39413825 3.32063229 178.85566577 3.95860709 191.32447815 5.41912842 C196.3610124 6.00169833 201.39130593 6.45929619 206.44921875 6.80859375 C207.14825821 6.85721558 207.84729767 6.9058374 208.56752014 6.95593262 C210.01896598 7.05664254 211.47041772 7.1572675 212.921875 7.2578125 C229.03569965 8.39493266 245.04250839 10.13200002 261.06640625 12.16796875 C262.05481506 12.29353149 263.04322388 12.41909424 264.06158447 12.54846191 C275.56673504 14.01802012 287.06056601 15.56801536 298.55140686 17.1451416 C303.27103892 17.79175577 307.99143381 18.42319892 312.71875 19.01171875 C314.06743164 19.17994141 314.06743164 19.17994141 315.44335938 19.3515625 C317.17732632 19.56582844 318.91171991 19.77666484 320.64648438 19.984375 C327.26634967 20.81844927 333.75237091 22.083314 340.28735352 23.42285156 C346.0213256 24.5534209 351.78987065 25.41194375 357.56640625 26.29296875 C376.37884264 29.24622041 395.05400748 32.90976302 413.74298096 36.5521698 C419.40447408 37.65495152 425.0687832 38.73996587 430.73828125 39.80078125 C447.88776071 43.02501733 464.88582391 46.75333011 481.87402344 50.72676086 C486.35139628 51.77316094 490.83337857 52.79593716 495.3203125 53.80078125 C507.11089068 56.45048358 518.73865822 59.39454252 530.33203125 62.8046875 C534.51206113 64.02735462 538.70630664 65.08990915 542.94140625 66.10546875 C551.37735498 68.16511035 559.64518986 70.71857989 567.9375 73.2890625 C571.8708286 74.50635676 575.814119 75.68186035 579.76806641 76.83039856 C597.45823249 81.97541784 614.97170636 87.70659603 632.50048828 93.37207031 C635.91564304 94.47576922 639.33265 95.57300686 642.75341797 96.65917969 C646.49076528 97.84643603 650.21704735 99.06550933 653.94140625 100.29296875 C655.51523071 100.78651855 655.51523071 100.78651855 657.12084961 101.29003906 C658.04905518 101.60295898 658.97726074 101.91587891 659.93359375 102.23828125 C660.71847168 102.49367676 661.50334961 102.74907227 662.31201172 103.01220703 C664.06640625 104.16796875 664.06640625 104.16796875 664.89453125 106.41992188 C665.09064841 109.5555679 664.66964657 112.00711457 663.94921875 115.06640625 C663.67674316 116.2469458 663.40426758 117.42748535 663.12353516 118.64379883 C662.81287781 119.94353464 662.50216635 121.24325751 662.19140625 122.54296875 C661.87056163 123.91992865 661.55076382 125.29713283 661.23193359 126.67456055 C660.54557543 129.63218501 659.85336218 132.58834883 659.15625 135.54345703 C657.5047485 142.54437925 655.87650802 149.55069644 654.2527771 156.55810547 C653.8769585 158.1797949 653.50067288 159.80137617 653.12393188 161.42285156 C649.85549288 175.50324704 646.79866919 189.62356777 643.80230713 203.7640686 C641.48034449 214.71321014 639.0574651 225.6178938 636.36987305 236.48413086 C633.92880323 246.47848035 631.82243741 256.54157139 629.69140625 266.60546875 C626.96141682 279.49695857 624.13879997 292.35366528 621.06640625 305.16796875 C618.02552334 317.85919253 615.21489 330.58977486 612.50390625 343.35546875 C608.17996308 363.70619134 603.66903827 384.00651623 598.94921875 404.26953125 C598.19599722 407.50636712 597.44347836 410.74336563 596.69140625 413.98046875 C596.50323334 414.78980865 596.31506042 415.59914856 596.1211853 416.43301392 C592.85377603 430.51003386 589.79793896 444.62701385 586.80230713 458.7640686 C584.48331965 469.69918084 582.06849544 480.59138317 579.37866211 491.44238281 C576.39849971 503.62511472 573.87914584 515.91423924 571.3125 528.18945312 C569.19158164 538.27617624 566.85690448 548.24346828 564.06640625 558.16796875 C556.61581194 557.73867714 549.95528784 555.22924905 542.98632812 552.73394775 C539.41201827 551.45600362 535.82791638 550.20642578 532.2421875 548.9609375 C531.18096176 548.59228577 531.18096176 548.59228577 530.09829712 548.21618652 C521.91617717 545.39544782 513.61242441 543.07257391 505.26855469 540.78564453 C501.88713232 539.83719679 498.53896744 538.79133962 495.19140625 537.73046875 C494.55734863 537.5305835 493.92329102 537.33069824 493.27001953 537.12475586 C491.93188993 536.7028784 490.59383933 536.28075028 489.25585938 535.85839844 C474.7295608 531.27762543 460.15016062 527.03053655 445.41162109 523.18432617 C439.17696901 521.55279227 432.96923671 519.86342505 426.77900696 518.0716095 C414.16886459 514.42183219 401.48877836 511.1033318 388.75390625 507.91796875 C387.64155609 507.63927948 386.52920593 507.36059021 385.38314819 507.07345581 C350.58502154 498.38804338 315.43066675 491.14620111 280.06640625 485.16796875 C278.99084473 484.98572754 277.9152832 484.80348633 276.80712891 484.61572266 C211.14599363 473.65682279 144.98936716 469.93731934 78.50390625 469.85546875 C77.52351002 469.8538763 76.54311378 469.85228386 75.53300858 469.85064316 C46.84821298 469.81118133 18.50406913 470.23115094 -9.98468018 473.92449951 C-12.95104346 474.29507429 -15.92413292 474.59158399 -18.8984375 474.890625 C-70.79441774 480.32103209 -133.8922614 496.78247067 -169.4453125 538.0859375 C-178.52276368 549.29262451 -185.9676244 561.61008418 -190.93359375 575.16796875 C-191.2171875 575.91046875 -191.50078125 576.65296875 -191.79296875 577.41796875 C-200.0326135 600.28718684 -200.33925937 627.4387191 -195.93359375 651.16796875 C-195.75054688 652.19277344 -195.5675 653.21757813 -195.37890625 654.2734375 C-191.07543203 675.23295082 -183.11561162 694.9348326 -168.93359375 711.16796875 C-168.1240625 712.10898438 -167.31453125 713.05 -166.48046875 714.01953125 C-154.93239589 727.19056513 -141.48696199 736.27619116 -126.68945312 745.44824219 C-124.16683766 747.0224186 -121.66366189 748.6218724 -119.16796875 750.23828125 C-64.34427647 785.6637244 -3.13273547 810.97337436 56.72509766 836.46484375 C60.88312984 838.23600041 65.03905759 840.01194106 69.19287109 841.79296875 C91.32205975 851.28058058 113.42286486 860.48667008 136.13970947 868.48681641 C142.70909141 870.80931466 149.26158117 873.17977564 155.81640625 875.54296875 C156.5762381 875.81684418 157.33606995 876.0907196 158.118927 876.37289429 C213.33832456 896.2953675 267.60272995 918.93954278 321.06640625 943.16796875 C321.76507812 943.48443359 322.46375 943.80089844 323.18359375 944.12695312 C340.62846473 952.0330775 358.02913389 959.97978891 375.1015625 968.66796875 C379.25913751 970.77892554 383.45708326 972.7883869 387.67675781 974.77172852 C413.96035591 987.1369883 440.14941403 1000.21981831 465.06640625 1015.16796875 C465.9471582 1015.68810547 466.82791016 1016.20824219 467.73535156 1016.74414062 C483.28341766 1025.92696366 498.23533373 1035.87412683 513.06640625 1046.16796875 C513.87867676 1046.72758301 514.69094727 1047.28719727 515.52783203 1047.86376953 C541.55958487 1065.80100195 566.2171432 1085.97322462 589.30883789 1107.55371094 C590.57180056 1108.71369276 591.84879869 1109.85846171 593.13452148 1110.99316406 C600.554077 1117.55166571 607.57092054 1124.48634487 614.57104492 1131.48730469 C616.62334049 1133.53740893 618.6835254 1135.57935626 620.74414062 1137.62109375 C627.27958541 1144.12934549 633.57130252 1150.63573291 639.26806641 1157.90209961 C641.0507668 1160.14826338 642.92855802 1162.25437922 644.87890625 1164.35546875 C650.75640927 1170.91694155 655.88542721 1178.0545246 661.06640625 1185.16796875 C661.61071289 1185.90917969 662.15501953 1186.65039062 662.71582031 1187.4140625 C678.28587926 1208.70800636 691.29277808 1231.58970587 703.06640625 1255.16796875 C703.46375977 1255.95478027 703.86111328 1256.7415918 704.27050781 1257.55224609 C743.44123384 1335.51032508 756.37063917 1428.54503816 735.56640625 1737.9375 C707.97072819 1821.23884872 662.3833151 1893.70820023 600.62890625 1955.73046875 C599.89583252 1956.46821533 599.16275879 1957.20596191 598.4074707 1957.96606445 C593.78857847 1962.57131771 589.01066003 1966.91658061 584.06640625 1971.16796875 C582.90989897 1972.18964381 581.75490401 1973.21303378 580.6015625 1974.23828125 C572.11612922 1981.7267854 563.35599911 1988.74012618 554.28759766 1995.50878906 C552.05536955 1997.17621292 549.83236047 1998.85543799 547.609375 2000.53515625 C529.63857845 2014.03007665 510.92069968 2026.44054816 491.50097656 2037.75 C489.88570146 2038.69078598 488.27303283 2039.63606229 486.66308594 2040.5859375 C425.20242879 2076.84151707 357.39707426 2103.85483945 288.48266602 2122.22924805 C285.78011073 2122.97185686 283.08864161 2123.73811528 280.39819336 2124.52270508 C268.17439529 2128.08312089 255.91230968 2131.25707474 243.50390625 2134.10546875 C242.57999084 2134.31862732 241.65607544 2134.53178589 240.7041626 2134.75140381 C206.0734375 2142.72230186 171.169023 2148.67838927 136.06640625 2154.16796875 C134.75432693 2154.3734433 134.75432693 2154.3734433 133.41574097 2154.58306885 C121.18080546 2156.48843252 108.93162173 2158.14114195 96.62890625 2159.54296875 C95.73073181 2159.64613403 94.83255737 2159.74929932 93.90716553 2159.85559082 C-2.72289032 2170.85399782 -100.01132396 2172.85892073 -248.69500732 2169.30078125 C-251.73807059 2169.17598704 -254.78130097 2169.05749607 -257.82470703 2168.94140625 C-320.1513501 2166.53158208 -382.28481778 2159.488108 -443.93359375 2150.16796875 C-444.78111206 2150.04010986 -445.62863037 2149.91225098 -446.50183105 2149.78051758 C-489.29150021 2143.29937579 -531.84868162 2135.27092166 -573.93359375 2125.16796875 C-575.9881761 2124.67924524 -578.04285531 2124.19092865 -580.09765625 2123.703125 C-582.72410066 2123.07873632 -585.35018254 2122.45309206 -587.97485352 2121.82128906 C-593.40572766 2120.51587093 -598.85134666 2119.29527721 -604.30859375 2118.10546875 C-611.53562297 2116.5207108 -618.68141874 2114.71768714 -625.81494141 2112.74951172 C-628.17908322 2112.10058503 -630.54635368 2111.46391113 -632.9140625 2110.828125 C-643.7357678 2107.91315111 -654.5110697 2104.86305968 -665.26269531 2101.69946289 C-670.33988307 2100.20759755 -675.4208486 2098.7448074 -680.52856445 2097.36108398 C-721.33806492 2086.28143078 -761.61704187 2072.31497022 -801.30859375 2057.79296875 C-802.56150208 2057.33612701 -802.56150208 2057.33612701 -803.83972168 2056.87005615 C-812.70082653 2053.62939191 -821.42451861 2050.26785929 -829.93359375 2046.16796875 C-829.4072463 2036.08433381 -827.32799548 2026.34452308 -825.30859375 2016.48046875 C-824.94720188 2014.69348655 -824.58603968 2012.90645788 -824.22509766 2011.11938477 C-821.7568524 1998.95252529 -819.13640116 1986.82365714 -816.44116211 1974.70532227 C-814.1497348 1964.337971 -812.11092595 1953.93889961 -810.12792969 1943.50927734 C-808.32923538 1934.09055158 -806.36355323 1924.71823511 -804.32177734 1915.34960938 C-802.09377282 1905.06210295 -800.03953075 1894.74343303 -797.99609375 1884.41796875 C-795.5611888 1872.11686138 -793.03414787 1859.84551138 -790.30859375 1847.60546875 C-787.71287281 1835.93858588 -785.36012094 1824.24954736 -783.12792969 1812.50927734 C-781.32923538 1803.09055158 -779.36355323 1793.71823511 -777.32177734 1784.34960938 C-775.09377173 1774.06209793 -773.039729 1763.74339722 -770.99609375 1753.41796875 C-768.53583627 1740.9933679 -765.98731805 1728.59621775 -763.24609375 1716.23046875 C-760.56780724 1704.13977051 -758.05263918 1692.02842052 -755.6640625 1679.87744141 C-754.11962975 1672.03448979 -752.55948958 1664.19465986 -750.99609375 1656.35546875 C-750.82297668 1655.48726501 -750.64985962 1654.61906128 -750.47149658 1653.72454834 C-748.12561804 1641.97383193 -745.70576244 1630.24396681 -743.16357422 1618.53393555 C-740.75765653 1607.43431734 -738.4772774 1596.30968899 -736.20483398 1585.18212891 C-736.06076111 1584.47806915 -735.91668823 1583.7740094 -735.76824951 1583.0486145 C-735.37620525 1581.13218019 -734.98530543 1579.21551186 -734.59448242 1577.29882812 C-734.08879401 1574.90320635 -733.53652412 1572.53965667 -732.93359375 1570.16796875 C-727.13622798 1572.05902892 -721.40651814 1574.07257984 -715.7109375 1576.25 C-714.12544106 1576.85146026 -712.53982359 1577.45260155 -710.95410156 1578.0534668 C-710.12736938 1578.36714203 -709.30063721 1578.68081726 -708.44885254 1579.0039978 C-680.59565694 1589.55496029 -652.49744371 1599.36437864 -624.24609375 1608.79296875 C-623.50782349 1609.0394516 -622.76955322 1609.28593445 -622.00891113 1609.53988647 C-613.01950294 1612.53580756 -604.00120359 1615.4163563 -594.93359375 1618.16796875 C-593.19643115 1618.70252927 -591.45944312 1619.23765749 -589.72265625 1619.7734375 C-567.47101018 1626.60442475 -545.1896268 1633.31369914 -522.55859375 1638.78125 C-518.50592198 1639.76475413 -514.47868606 1640.82110309 -510.453125 1641.91015625 C-498.55577108 1645.11429366 -486.58404151 1648.03311661 -474.62109375 1650.98046875 C-473.35547607 1651.29233124 -472.0898584 1651.60419373 -470.78588867 1651.92550659 C-452.06654379 1656.52650241 -433.33921458 1660.83603491 -414.41308594 1664.49169922 C-411.04321112 1665.14666366 -407.67933944 1665.82598659 -404.31640625 1666.515625 C-358.08176865 1675.97918831 -311.47008461 1682.826566 -264.52114868 1687.498703 C-259.96888724 1687.95385615 -255.42329414 1688.44727805 -250.87890625 1688.9765625 C-201.91757329 1694.53446955 -152.1505185 1695.30492733 -102.91040039 1696.11791992 C-99.98251693 1696.16714621 -97.0547482 1696.22119511 -94.12695312 1696.27539062 C-52.84364671 1696.99649163 -12.53691734 1693.63712486 28.06640625 1686.16796875 C29.11554199 1685.97702637 30.16467773 1685.78608398 31.24560547 1685.58935547 C36.87675124 1684.55175659 42.47707638 1683.41044143 48.06640625 1682.16796875 C48.90445801 1681.98411621 49.74250977 1681.80026367 50.60595703 1681.61083984 C62.61220523 1678.95138181 74.30313825 1675.68685325 85.98144531 1671.84375 C88.95314071 1670.8805588 91.94720903 1669.99582956 94.94140625 1669.10546875 C124.90348601 1659.79906519 148.89418893 1641.05463904 164.10253906 1613.27539062 C181.354554 1580.01974776 181.75599958 1542.60309109 170.81640625 1507.23046875 C156.96268188 1469.29456929 131.52995788 1440.99320932 96.06640625 1422.16796875 C94.34478271 1421.25072021 94.34478271 1421.25072021 92.58837891 1420.31494141 C87.25182399 1417.47236858 81.91456251 1414.63122086 76.56665039 1411.81005859 C75.26177201 1411.12097554 73.95700492 1410.43168171 72.65234375 1409.7421875 C71.98113495 1409.387509 71.30992615 1409.03283051 70.61837769 1408.66740417 C66.76188061 1406.62185924 62.92408955 1404.54609368 59.10180664 1402.43725586 C45.08796944 1394.70817256 30.8907545 1387.39919068 16.56795502 1380.25981522 C14.72270769 1379.33991552 12.87807957 1378.41878255 11.0335083 1377.49752808 C-8.09950678 1367.94766634 -27.33316008 1358.72107701 -46.93359375 1350.16796875 C-48.19845072 1349.61180213 -49.46309641 1349.0551548 -50.72753906 1348.49804688 C-59.43804964 1344.66248384 -68.17566273 1340.89388897 -76.93359375 1337.16796875 C-78.07054687 1336.68295898 -79.2075 1336.19794922 -80.37890625 1335.69824219 C-107.34135914 1324.23919971 -134.77431589 1313.91389816 -162.30859375 1303.91796875 C-183.87764578 1296.08074307 -205.25409957 1287.72566705 -226.6529541 1279.43792725 C-229.82371086 1278.21050519 -232.99523593 1276.98509049 -236.16699219 1275.76025391 C-299.04522788 1251.46564813 -360.55997197 1224.32219508 -421.04541016 1194.5703125 C-424.13130426 1193.05248873 -427.21916802 1191.53887232 -430.31005859 1190.03125 C-466.29221177 1172.47603902 -500.54670559 1151.71254325 -532.93359375 1128.16796875 C-533.66094727 1127.64187012 -534.38830078 1127.11577148 -535.13769531 1126.57373047 C-545.75328678 1118.88619528 -556.10268221 1110.96113576 -566.19677734 1102.60058594 C-568.6959378 1100.53914743 -571.22404746 1098.51380168 -573.74609375 1096.48046875 C-578.4357076 1092.64287183 -582.91845624 1088.60814119 -587.37890625 1084.5078125 C-589.5605719 1082.50962027 -591.76370684 1080.54647986 -593.99609375 1078.60546875 C-602.46509958 1071.2273586 -610.63321327 1063.63105876 -618.55737305 1055.67456055 C-620.12631735 1054.1002272 -621.70057933 1052.53135286 -623.27539062 1050.96289062 C-628.70555405 1045.53657194 -633.9620512 1040.02170437 -638.93359375 1034.16796875 C-639.85867813 1033.11932694 -640.78568522 1032.07237733 -641.71484375 1031.02734375 C-650.37165904 1021.17446911 -658.17655083 1010.73568313 -665.93359375 1000.16796875 C-666.51318848 999.38309082 -667.0927832 998.59821289 -667.68994141 997.78955078 C-686.20062671 972.69941432 -701.96075835 946.03555336 -715.93359375 918.16796875 C-716.44696289 917.14525879 -716.96033203 916.12254883 -717.48925781 915.06884766 C-724.04368348 901.92549934 -729.98650042 888.7261227 -734.94628906 874.90039062 C-735.99945209 871.98570206 -737.08577773 869.08469434 -738.17578125 866.18359375 C-743.23338985 852.60106342 -747.45193882 838.92729974 -751.18554688 824.92626953 C-751.83648573 822.52603872 -752.51940665 820.14075658 -753.23046875 817.7578125 C-757.39791938 803.69245767 -760.22739645 789.30227886 -763.15966797 774.93994141 C-763.78945415 771.8704788 -764.43620429 768.80576631 -765.09375 765.7421875 C-767.27168118 755.33082237 -768.76860364 744.82056819 -770.17254639 734.28155518 C-770.37849164 732.73729603 -770.58735816 731.1934216 -770.80010986 729.65008545 C-775.57741075 694.66677076 -776.38493878 659.64444331 -776.19787598 624.38848877 C-776.17860367 620.04274851 -776.17470607 615.69704992 -776.17116165 611.35127258 C-776.16598431 606.08181927 -776.15153506 600.81240217 -776.13671875 595.54296875 C-776.13483803 594.57213348 -776.13295731 593.60129822 -776.13101959 592.6010437 C-776.09392078 577.83674035 -775.68158473 563.1912067 -773.91796875 548.515625 C-773.82216522 547.69612869 -773.72636169 546.87663239 -773.62765503 546.03230286 C-773.31993928 543.43079427 -773.00334612 540.83052398 -772.68359375 538.23046875 C-772.51836212 536.87927948 -772.51836212 536.87927948 -772.34979248 535.50079346 C-770.68121837 521.97604176 -768.65514631 508.62795978 -765.64453125 495.328125 C-764.9873831 492.40706536 -764.35539671 489.48143431 -763.73121643 486.55317688 C-760.43680956 471.12690289 -756.72784722 455.91978866 -751.82519531 440.91308594 C-750.92885912 438.15339147 -750.06626628 435.38472593 -749.20703125 432.61328125 C-734.59905897 386.29319093 -712.49702618 341.77809737 -685.49755859 301.50732422 C-684.21725881 299.59227075 -682.95278074 297.66946064 -681.703125 295.734375 C-670.05418327 277.8263004 -656.64702966 261.16279278 -642.80859375 244.91796875 C-642.37853027 244.41225342 -641.9484668 243.90653809 -641.50537109 243.38549805 C-632.49492806 232.91081665 -622.93483702 223.00608809 -613.15307617 213.25708008 C-611.2343387 211.34374681 -609.32106621 209.42506371 -607.40820312 207.50585938 C-601.42000884 201.51412734 -595.42469532 195.62003902 -588.93359375 190.16796875 C-587.86158333 189.23110597 -586.79122726 188.29234632 -585.72265625 187.3515625 C-576.41415951 179.24501115 -566.74092947 171.65910854 -556.93359375 164.16796875 C-556.27665527 163.66297852 -555.6197168 163.15798828 -554.94287109 162.63769531 C-485.11373756 109.01665766 -398.82303819 64.6645372 -312.89453125 43.44140625 C-308.53271478 42.36393092 -304.23720042 41.08336531 -299.93359375 39.796875 C-291.19975777 37.19770824 -282.40381451 34.9162796 -273.55859375 32.73046875 C-272.77891235 32.53721008 -271.99923096 32.34395142 -271.19592285 32.14483643 C-265.77881981 30.80395981 -260.35772741 29.48009758 -254.93359375 28.16796875 C-253.73379883 27.87744629 -252.53400391 27.58692383 -251.29785156 27.28759766 C-225.82541427 21.19701934 -199.87482065 16.73928326 -173.93359375 13.16796875 C-171.96561888 12.88507469 -169.99764844 12.60214869 -168.02981567 12.31826782 C-143.72803016 8.8289653 -119.3905716 6.28136407 -94.93359375 4.16796875 C-94.08742493 4.09406921 -93.2412561 4.02016968 -92.3694458 3.94403076 C-87.3823388 3.50856188 -82.39451029 3.08365319 -77.40524292 2.67364502 C-75.89738891 2.54951841 -74.38966475 2.42379845 -72.8821106 2.29608154 C-48.64032996 0.25985182 -24.31353101 0.00703724 0 0 Z " fill="#FEFEFF" transform="translate(1959.93359375,838.83203125)"/>
<path d="M0 0 C0.33 0 0.66 0 1 0 C1 611.49 1 1222.98 1 1853 C-607.85 1853 -1216.7 1853 -1844 1853 C-1844 1852.67 -1844 1852.34 -1844 1852 C-1843.32657562 1851.98181717 -1842.65315125 1851.96363434 -1841.95932007 1851.94490051 C-1822.86914675 1851.40483916 -1803.86863677 1850.28826363 -1784.82836914 1848.85335159 C-1782.58276951 1848.68432123 -1780.33705166 1848.51693612 -1778.09130859 1848.349823 C-1756.98616007 1846.77540155 -1735.9214957 1845.02696054 -1714.89892578 1842.56542969 C-1710.2609266 1842.02494751 -1705.61944806 1841.51911576 -1700.9773407 1841.01530457 C-1672.46769289 1837.91625713 -1644.13804123 1834.17742949 -1615.84887695 1829.4732666 C-1612.92118486 1828.98690692 -1609.9928759 1828.50440016 -1607.06445312 1828.02246094 C-1572.17496627 1822.26874556 -1537.46760102 1815.92224553 -1503 1808 C-1500.8594265 1807.51279451 -1498.71880129 1807.02581616 -1496.578125 1806.5390625 C-1480.35119165 1802.83492834 -1464.16864519 1798.95006142 -1448 1795 C-1446.91879883 1794.73687012 -1445.83759766 1794.47374023 -1444.72363281 1794.20263672 C-1441.64785747 1793.45250569 -1438.57368196 1792.69615834 -1435.5 1791.9375 C-1434.64325684 1791.72867188 -1433.78651367 1791.51984375 -1432.90380859 1791.3046875 C-1423.8084083 1789.04226806 -1414.81746219 1786.40626473 -1405.81317139 1783.80996704 C-1403.08232701 1783.02370356 -1400.35024645 1782.24191035 -1397.61767578 1781.46166992 C-1303.84009801 1754.6626112 -1212.25416812 1721.78388555 -1058 1650 C-1056.35040283 1649.18764893 -1056.35040283 1649.18764893 -1054.66748047 1648.35888672 C-1042.66990293 1642.44218984 -1030.8017569 1636.29757616 -1019 1630 C-1018.01225586 1629.47390137 -1017.02451172 1628.94780273 -1016.00683594 1628.40576172 C-1001.57745234 1620.71112738 -987.25519555 1612.8513248 -973.0546875 1604.7421875 C-969.77942558 1602.87419924 -966.49927975 1601.01497002 -963.21875 1599.15625 C-939.45713897 1585.67622045 -916.10512744 1571.57702098 -893 1557 C-892.09217773 1556.42958984 -891.18435547 1555.85917969 -890.24902344 1555.27148438 C-869.78965837 1542.41300702 -849.66912188 1529.02593763 -829.81396484 1515.25341797 C-827.9188289 1513.94391219 -826.01698582 1512.64467016 -824.11328125 1511.34765625 C-814.72081747 1504.94176285 -805.48204914 1498.34231257 -796.28662109 1491.65722656 C-794.01548973 1490.01122617 -791.73756137 1488.37513544 -789.45703125 1486.7421875 C-779.93701389 1479.91897739 -770.57800074 1472.91867727 -761.30273438 1465.76708984 C-758.81924095 1463.86128774 -756.32494745 1461.97033397 -753.828125 1460.08203125 C-744.32026154 1452.88670434 -734.92830047 1445.59115621 -725.7109375 1438.02734375 C-722.07687474 1435.0490875 -718.39042686 1432.14193016 -714.6875 1429.25 C-705.90825845 1422.38317766 -697.32300355 1415.29980258 -688.83129883 1408.08154297 C-685.46149905 1405.22132267 -682.0596899 1402.40740457 -678.625 1399.625 C-668.60895068 1391.46323386 -658.92941182 1382.90792225 -649.3984375 1374.1875 C-644.91819699 1370.10128716 -640.34300942 1366.1315561 -635.7109375 1362.21875 C-629.6593181 1357.09411039 -623.73961617 1351.97604121 -618.2578125 1346.23046875 C-615.64295116 1343.64727528 -612.88965282 1341.26312372 -610.11474609 1338.85424805 C-606.75898238 1335.91185305 -603.50012519 1332.87067782 -600.25 1329.8125 C-599.17504272 1328.80231812 -599.17504272 1328.80231812 -598.07836914 1327.77172852 C-591.22942205 1321.29279636 -584.56905647 1314.63033987 -577.95214844 1307.9152832 C-573.7015369 1303.61914798 -569.38189086 1299.5041124 -564.79760742 1295.56616211 C-562.23270623 1293.33149673 -559.83974153 1290.97190171 -557.4375 1288.5625 C-556.56996094 1287.69753906 -555.70242188 1286.83257813 -554.80859375 1285.94140625 C-552.74074843 1283.82210371 -550.80268276 1281.62156018 -548.87890625 1279.37109375 C-543.5772346 1273.25933417 -537.72595594 1267.66930412 -531.97021484 1261.99072266 C-526.68504172 1256.77002355 -521.47107368 1251.54759387 -516.64111328 1245.89501953 C-513.60374681 1242.3877243 -510.38142237 1239.05166172 -507.1875 1235.6875 C-499.22691501 1227.26463423 -491.36695334 1218.76956334 -483.76953125 1210.015625 C-481.74885044 1207.71392236 -479.68687382 1205.45235621 -477.625 1203.1875 C-473.67628555 1198.81714316 -469.9537279 1194.29696921 -466.25 1189.71875 C-464.06498431 1187.07852271 -461.80828609 1184.5327028 -459.5 1182 C-455.65489125 1177.77635723 -452.03241829 1173.4130207 -448.44140625 1168.97265625 C-445.72280268 1165.66248454 -442.92911505 1162.42508413 -440.125 1159.1875 C-435.67104116 1154.02946926 -431.3907839 1148.76661987 -427.2109375 1143.38476562 C-423.74796724 1138.93026114 -420.20082612 1134.55173501 -416.625 1130.1875 C-410.39865979 1122.56940052 -404.41766582 1114.7781101 -398.47412109 1106.93847656 C-396.37335299 1104.17595607 -394.24866168 1101.43246436 -392.125 1098.6875 C-381.37778608 1084.71786375 -370.88742527 1070.56574327 -360.61474609 1056.24414062 C-358.9445577 1053.92294744 -357.26463454 1051.60908218 -355.58203125 1049.296875 C-350.25182591 1041.966318 -344.99116144 1034.6212543 -340.015625 1027.04296875 C-337.59752422 1023.39238637 -335.11376077 1019.79010574 -332.625 1016.1875 C-313.34996945 988.22746084 -295.0523761 959.57273199 -277.50878906 930.49902344 C-276.22606849 928.37443965 -274.9386483 926.25285051 -273.6484375 924.1328125 C-266.85419467 912.93390718 -260.3604037 901.55793095 -253.83837891 890.19921875 C-252.17081177 887.2972533 -250.49833764 884.39818866 -248.82421875 881.5 C-237.73688274 862.26186582 -227.25404772 842.69311118 -217 823 C-216.16879639 821.40526855 -216.16879639 821.40526855 -215.32080078 819.77832031 C-202.57925465 795.30879904 -190.08804379 770.75280653 -178.59820557 745.66416931 C-176.80644428 741.75183503 -175.00275448 737.84526206 -173.19088745 733.94219971 C-156.8871143 698.80432343 -141.92387652 663.14475522 -128 627 C-127.70218628 626.22924133 -127.40437256 625.45848267 -127.09753418 624.66436768 C-103.47505995 563.51432088 -83.31406339 501.21300654 -66 438 C-65.6017099 436.54895874 -65.6017099 436.54895874 -65.19537354 435.06860352 C-58.85416394 411.95111313 -52.81876675 388.8307818 -47.74707031 365.39941406 C-46.78902438 361.039992 -45.76881563 356.69651056 -44.74438477 352.35229492 C-23.6760931 262.77923333 -10.55253483 170.7631355 -4 79 C-3.89395447 77.52654114 -3.89395447 77.52654114 -3.7857666 76.02331543 C-1.97099176 50.69660587 -0.51190405 25.38874408 0 0 Z " fill="#FEFEFE" transform="translate(3838,1986)"/>
<path d="M0 0 C0.33 0 0.66 0 1 0 C1.06184479 1.19647911 1.06184479 1.19647911 1.12493896 2.41712952 C5.01554129 77.42080939 10.55314804 152.12055783 23.19726562 226.23144531 C23.9891471 230.89566993 24.72760077 235.56724259 25.453125 240.2421875 C30.61281668 273.34766097 36.6993331 306.36769208 44.30273438 339.00341797 C45.02940939 342.12639036 45.74241677 345.25226385 46.453125 348.37890625 C47.94520797 354.92483455 49.46628647 361.46371053 51 368 C51.25861816 369.1044043 51.51723633 370.20880859 51.78369141 371.34667969 C58.22012812 398.72220318 65.15407119 426.0446347 73.12158203 453.01855469 C73.96826531 455.89228905 74.80508691 458.76879664 75.64074707 461.64575195 C101.75531144 551.41160478 133.94241211 639.17592879 201 783 C201.48336823 783.97963715 201.48336823 783.97963715 201.97650146 784.97906494 C209.44125604 800.0965066 217.02681954 815.1435835 225 830 C225.48791016 830.91136719 225.97582031 831.82273437 226.47851562 832.76171875 C234.44645143 847.62593772 242.62627126 862.36079652 251 877 C251.60634277 878.06041504 252.21268555 879.12083008 252.83740234 880.21337891 C290.84715744 946.59564658 332.53921524 1011.1449212 378.64941406 1072.20849609 C379.90322403 1073.87163014 381.15218831 1075.53822733 382.3984375 1077.20703125 C387.03993366 1083.42012172 391.73672161 1089.58836379 396.4765625 1095.7265625 C398.12497524 1097.86151674 399.76388049 1100.00274865 401.3984375 1102.1484375 C406.51812257 1108.85870434 411.76584702 1115.44652595 417.1081543 1121.98095703 C420.66891266 1126.3417741 424.16723283 1130.74473275 427.625 1135.1875 C432.07138326 1140.89034719 436.69141589 1146.42321881 441.38671875 1151.921875 C443.77882269 1154.7270732 446.11455851 1157.57463157 448.4375 1160.4375 C453.33380854 1166.44898202 458.38607924 1172.32043431 463.44726562 1178.19287109 C464.98645982 1179.98424144 466.51787119 1181.78195887 468.046875 1183.58203125 C473.75087405 1190.28920456 479.5653947 1196.86376363 485.54296875 1203.328125 C488.17520188 1206.1905216 490.73793642 1209.10466865 493.2890625 1212.0390625 C499.78916546 1219.4889522 506.51561135 1226.71809779 513.29248047 1233.9152832 C516.18102883 1236.98467919 519.06498029 1240.05570355 521.89453125 1243.1796875 C529.1796007 1251.21407837 536.80668678 1258.87464917 544.52783203 1266.4909668 C549.00731479 1270.92656584 553.32537466 1275.41210738 557.42895508 1280.19750977 C559.81653883 1282.9368308 562.35859235 1285.5044742 564.9375 1288.0625 C565.6480957 1288.77889648 565.6480957 1288.77889648 566.37304688 1289.50976562 C569.06615745 1292.19570413 571.83428858 1294.73983034 574.72265625 1297.21484375 C580.88492974 1302.55489452 586.5018276 1308.45881221 592.22265625 1314.26171875 C596.71111268 1318.78937567 601.23215557 1323.18057997 606.07421875 1327.328125 C609.56662111 1330.36006863 612.89605948 1333.56672374 616.25 1336.75 C626.71291241 1346.6366576 637.25838238 1356.40152751 648.21484375 1365.7421875 C649.41421409 1366.76544735 650.61342817 1367.78889037 651.8125 1368.8125 C652.41860107 1369.32973633 653.02470215 1369.84697266 653.64916992 1370.37988281 C657.39051541 1373.5848938 661.0610693 1376.85201503 664.6875 1380.1875 C669.0201077 1384.16010968 673.48855372 1387.90340698 678.0625 1391.59375 C681.36353781 1394.29779161 684.58754701 1397.08122857 687.8125 1399.875 C692.94570643 1404.30847818 698.18596813 1408.5620869 703.54492188 1412.71875 C708.2104812 1416.34809118 712.76729288 1420.09647929 717.3125 1423.875 C724.30226222 1429.67111862 731.44261015 1435.23223455 738.6796875 1440.71484375 C743.17436737 1444.1211763 747.61889618 1447.58996761 752.0625 1451.0625 C765.40169784 1461.46126782 778.98638708 1471.49151436 792.72216797 1481.35888672 C794.97739015 1482.98371024 797.22600828 1484.61725248 799.47265625 1486.25390625 C806.81791149 1491.59984014 814.20393792 1496.87146732 821.7109375 1501.98828125 C822.52202469 1502.54207962 823.33311188 1503.09587799 824.16877747 1503.66645813 C833.07259567 1509.74066793 841.99373458 1515.78928536 850.92602539 1521.8215332 C852.77318795 1523.06968664 854.6195375 1524.31904409 856.46508789 1525.56958008 C867.30089386 1532.91150446 878.18227821 1540.13195693 889.33810425 1546.97958374 C891.70354731 1548.43198324 894.06025817 1549.89837272 896.41796875 1551.36328125 C898.8948468 1552.89589866 901.37271684 1554.42690013 903.85083008 1555.95751953 C908.27294133 1558.68990016 912.69029627 1561.42903873 917.09375 1564.19140625 C929.86183463 1572.18358618 942.83884615 1579.77081008 955.91943359 1587.23925781 C958.71686599 1588.83817067 961.50980987 1590.44453212 964.30078125 1592.0546875 C986.93402127 1605.09173219 1009.83346442 1617.5532212 1033.06689453 1629.48486328 C1036.35887754 1631.18538322 1039.63201026 1632.9188324 1042.90161133 1634.66186523 C1066.05585573 1646.99108836 1089.63447731 1658.54301034 1113.50732422 1669.40966797 C1116.47066153 1670.7589745 1119.43059119 1672.11543246 1122.38929749 1673.47485352 C1203.1154642 1710.52997205 1286.79531133 1741.91174523 1372 1767 C1373.20616974 1767.35650635 1373.20616974 1767.35650635 1374.43670654 1767.72021484 C1422.68007079 1781.97304589 1471.43601338 1794.9572589 1520.828125 1804.578125 C1526.50690597 1805.68952181 1532.15914743 1806.89361194 1537.80883789 1808.14355469 C1575.88379951 1816.5417425 1614.41878256 1822.48238134 1653 1828 C1653.89547546 1828.12826172 1654.79095093 1828.25652344 1655.71356201 1828.38867188 C1682.41678827 1832.19932472 1709.2106262 1835.07763968 1736.05328369 1837.70965576 C1738.88797231 1837.98896175 1741.72211271 1838.27327479 1744.55615234 1838.55908203 C1777.6475877 1841.88009231 1810.78436029 1843.53726468 1844 1845 C1844 1845.33 1844 1845.66 1844 1846 C1235.48 1846 626.96 1846 0 1846 C0 1236.82 0 627.64 0 0 Z " fill="#FEFEFE" transform="translate(1,1993)"/>
<path d="M0 0 C609.18 0 1218.36 0 1846 0 C1846 608.52 1846 1217.04 1846 1844 C1845.67 1844 1845.34 1844 1845 1844 C1844.96360916 1843.09231369 1844.96360916 1843.09231369 1844.92648315 1842.16629028 C1841.93685659 1768.53935826 1834.55874869 1695.50733422 1823.40631104 1622.65789795 C1823.0239393 1620.15659976 1822.64503163 1617.65480279 1822.26708984 1615.15283203 C1816.77407254 1578.92566971 1810.02799345 1542.77315832 1801.7109375 1507.08691406 C1800.94182058 1503.74738303 1800.20302154 1500.4020479 1799.46875 1497.0546875 C1791.24455874 1459.71221329 1781.60955676 1422.73231305 1771 1386 C1770.76321533 1385.17920959 1770.52643066 1384.35841919 1770.2824707 1383.51275635 C1758.75667774 1343.63164019 1746.08953854 1303.96847014 1731.73974609 1265.00958252 C1730.94268681 1262.8443039 1730.14905687 1260.67778355 1729.35546875 1258.51123047 C1705.13547456 1192.49743947 1677.09971703 1128.05452608 1646 1065 C1645.68720093 1064.36580139 1645.37440186 1063.73160278 1645.05212402 1063.07818604 C1637.5795944 1047.94126323 1629.98315998 1032.87501132 1622 1018 C1621.51208984 1017.08863281 1621.02417969 1016.17726563 1620.52148438 1015.23828125 C1607.82480347 991.55256768 1594.48629476 968.24317215 1581 945 C1580.52965332 944.18805176 1580.05930664 943.37610352 1579.57470703 942.53955078 C1573.67518172 932.36895679 1567.55305322 922.34655723 1561.3359375 912.3671875 C1559.17813498 908.90344537 1557.03715157 905.43043442 1554.9140625 901.9453125 C1547.10809079 889.16133284 1538.88090385 876.68103357 1530.52590942 864.25265503 C1527.77382655 860.15792162 1525.03522369 856.05444203 1522.3046875 851.9453125 C1510.03960804 833.49009869 1497.67124898 815.14568912 1484.62060547 797.23388672 C1482.99841529 794.99781559 1481.38981946 792.75258146 1479.78515625 790.50390625 C1473.75377184 782.06472513 1467.56968898 773.77957183 1461.16699219 765.61816406 C1457.31711986 760.70877255 1453.53886031 755.75369203 1449.8125 750.75 C1441.74838108 739.94222682 1433.36727675 729.40903385 1424.83837891 718.96533203 C1421.31511628 714.64403423 1417.85870588 710.27732344 1414.4375 705.875 C1409.3215099 699.30991314 1403.93118752 693.0049234 1398.48193359 686.71582031 C1396.07509942 683.92912664 1393.69175301 681.12274986 1391.3125 678.3125 C1390.85673584 677.77488037 1390.40097168 677.23726074 1389.93139648 676.68334961 C1387.0940764 673.32596508 1384.31829667 669.92491996 1381.5625 666.5 C1377.18899497 661.12145252 1372.51181721 656.06547069 1367.78515625 651 C1365.02653661 648.04123978 1362.35388674 645.01604915 1359.70703125 641.95703125 C1356.98035033 638.83101949 1354.19028547 635.76240485 1351.40625 632.6875 C1349.4837902 630.54033711 1347.58804381 628.37572271 1345.69921875 626.19921875 C1342.00590329 621.9710708 1338.17663666 617.88424357 1334.3125 613.8125 C1330.02753734 609.28438057 1325.75450951 604.75017306 1321.56201172 600.13623047 C1315.1878411 593.12803932 1308.50981281 586.44415853 1301.76049805 579.79736328 C1297.52869986 575.61187451 1293.48563408 571.35123362 1289.60620117 566.83764648 C1287.20385859 564.08913872 1284.65325756 561.50727977 1282.0625 558.9375 C1281.58876953 558.45990234 1281.11503906 557.98230469 1280.62695312 557.49023438 C1277.95428496 554.82468383 1275.20916233 552.30044897 1272.33984375 549.84765625 C1266.23674053 544.55888075 1260.65876346 538.71527206 1254.99072266 532.97021484 C1249.7685867 527.68358712 1244.54465297 522.468132 1238.890625 517.63671875 C1235.40656183 514.62055662 1232.09199428 511.42161053 1228.75 508.25 C1227.2530729 506.83674294 1225.75567496 505.42398443 1224.2578125 504.01171875 C1223.53239258 503.32770996 1222.80697266 502.64370117 1222.05957031 501.93896484 C1215.73195047 495.9818813 1209.40326958 490.07323122 1202.625 484.625 C1198.23190667 481.09280104 1194.10107057 477.36081031 1190 473.5 C1185.12183457 468.91195878 1180.13929396 464.56447116 1174.91015625 460.375 C1171.37448086 457.48950922 1167.93782621 454.50078524 1164.5 451.5 C1158.42826026 446.21073221 1152.26382943 441.06117418 1146 436 C1144.7521362 434.98234439 1143.5047748 433.96407255 1142.2578125 432.9453125 C1134.1410307 426.31981071 1125.96267825 419.78230647 1117.70458984 413.33398438 C1116.0039668 412.00310435 1114.3079073 410.66663044 1112.61328125 409.328125 C1089.46054153 391.04964627 1065.85519959 373.29986486 1041.77636719 356.25830078 C1039.89287649 354.92411839 1038.01282484 353.5851723 1036.1328125 352.24609375 C999.56261284 326.25405102 961.93562778 301.75470373 923.54736328 278.54101562 C921.40335052 277.24400503 919.26169601 275.94325068 917.12109375 274.640625 C905.92531506 267.85025796 894.55387942 261.35807736 883.19921875 254.83837891 C880.2972533 253.17081177 877.39818866 251.49833764 874.5 249.82421875 C855.26103659 238.73640484 835.68656553 228.26806729 816 218 C815.02289062 217.48888672 814.04578125 216.97777344 813.0390625 216.45117188 C787.18444099 202.93335433 761.19543069 189.79040874 734.65185547 177.66992188 C731.52283105 176.24101653 728.39919244 174.80068918 725.27648926 173.35803223 C691.29143403 157.66822626 656.80087047 143.25741376 621.89910889 129.73587036 C620.16410141 129.06358633 618.42990798 128.38920242 616.69580078 127.71459961 C555.98071729 104.2007483 493.94725226 83.75299979 431.00805664 67.06958008 C426.55142161 65.88481162 422.10422811 64.66600136 417.65625 63.44921875 C397.98561158 58.083017 378.32032117 53.076028 358.39355469 48.75 C355.27764224 48.06136093 352.17313839 47.33884681 349.0703125 46.59375 C314.70834278 38.35182185 279.86059511 31.7619904 245 26 C244.26448914 25.87816345 243.52897827 25.7563269 242.7711792 25.63079834 C162.27376642 12.32623699 81.46286391 4.90581007 0 1 C0 0.67 0 0.34 0 0 Z " fill="#FEFEFE" transform="translate(1993,1)"/>
<path d="M0 0 C608.85 0 1217.7 0 1845 0 C1845 0.33 1845 0.66 1845 1 C1843.90913086 1.03963867 1842.81826172 1.07927734 1841.69433594 1.12011719 C1796.8194364 2.786886 1752.17127669 6.19688332 1707.56396484 11.35888672 C1702.90009712 11.89842397 1698.23466056 12.42266356 1693.56851196 12.94206238 C1671.3822671 15.41390667 1649.26577204 18.16003574 1627.21533203 21.6496582 C1624.93556465 22.01019007 1622.65529114 22.3674066 1620.375 22.72460938 C1572.05348946 30.32887405 1523.64207412 39.22313724 1476.25463867 51.42871094 C1470.3103687 52.95554221 1464.35300052 54.38008257 1458.36332703 55.71565247 C1446.00500877 58.47366928 1433.77684326 61.6026952 1421.5625 64.9375 C1420.53743347 65.21656189 1419.51236694 65.49562378 1418.45623779 65.78314209 C1335.23374541 88.48047541 1253.41872085 116.28597933 1174 150 C1173.32142944 150.28750122 1172.64285889 150.57500244 1171.94372559 150.87121582 C1135.11362344 166.4826749 1098.86951355 183.29775199 1063 201 C1062.02036285 201.48336823 1062.02036285 201.48336823 1061.02093506 201.97650146 C1045.9034934 209.44125604 1030.8564165 217.02681954 1016 225 C1015.08863281 225.48791016 1014.17726563 225.97582031 1013.23828125 226.47851562 C998.37406228 234.44645143 983.63920348 242.62627126 969 251 C967.93958496 251.60634277 966.87916992 252.21268555 965.78662109 252.83740234 C944.13123363 265.23703861 922.79172849 278.05412677 901.66357422 291.33105469 C899.42794076 292.7318604 897.18751884 294.12390805 894.94140625 295.5078125 C874.37499254 308.19545494 854.27102992 321.66793078 834.37060547 335.37011719 C832.15871601 336.89087662 829.94188934 338.40404739 827.72265625 339.9140625 C818.46579548 346.22295706 809.36948923 352.73862129 800.30859375 359.32519531 C797.97003676 361.02173729 795.62652478 362.71119643 793.28125 364.3984375 C784.78612873 370.51070518 776.33151825 376.66554979 768 383 C766.84129395 383.88026855 766.84129395 383.88026855 765.65917969 384.77832031 C760.23859612 388.89812642 754.82390261 393.02557938 749.41308594 397.15820312 C747.38401903 398.70689604 745.35276266 400.25262837 743.3203125 401.796875 C736.78541397 406.78360555 730.38091661 411.90720215 724.01708984 417.10961914 C719.65703379 420.67003484 715.25449329 424.16755941 710.8125 427.625 C704.60964318 432.46469728 698.59358149 437.50023933 692.61767578 442.61621094 C689.87702104 444.96061647 687.12663464 447.29349955 684.375 449.625 C683.83496338 450.08318115 683.29492676 450.5413623 682.73852539 451.01342773 C679.31877839 453.90745784 675.85939926 456.74627389 672.375 459.5625 C667.60979582 463.4398641 663.06319317 467.5173212 658.5390625 471.671875 C654.08821124 475.75296323 649.5328668 479.70675531 644.921875 483.60546875 C636.65349266 490.61253232 628.68119803 497.87783446 620.79638672 505.3125 C618.04834543 507.8939707 615.27450504 510.44704634 612.5 513 C611.42823583 513.98942132 610.35662235 514.97900589 609.28515625 515.96875 C607.62581402 517.50121599 605.96506912 519.03203084 604.30029297 520.55859375 C595.3123533 528.80320788 586.61421875 537.29689792 578.05249023 545.984375 C573.75443397 550.32789272 569.38713455 554.48806386 564.75341797 558.47119141 C560.75240066 561.95968631 557.18478069 565.85520934 553.59790039 569.75756836 C546.28562083 577.70635277 538.71001682 585.3650357 531.01733398 592.94555664 C526.73825845 597.18030267 522.62604823 601.47343507 518.70483398 606.04125977 C515.65824124 609.54159108 512.44404441 612.88471403 509.25 616.25 C499.35158973 626.7253501 489.58467397 637.28958901 480.22265625 648.25 C479.19015817 649.45837948 478.15760454 650.6667115 477.125 651.875 C476.60518555 652.4836792 476.08537109 653.0923584 475.54980469 653.71948242 C472.52081344 657.25662058 469.44835977 660.74409531 466.3125 664.1875 C462.53147171 668.35476237 458.9695404 672.66630303 455.4296875 677.0390625 C452.77202582 680.27782063 450.05019315 683.4540029 447.3125 686.625 C437.48368792 698.03604197 427.95395519 709.68482489 418.6953125 721.5625 C416.87678873 723.89169602 415.03792078 726.20236268 413.1796875 728.5 C406.8459687 736.33196062 400.7295342 744.29904837 394.71459961 752.37866211 C390.49022433 758.0440349 386.18058908 763.6324631 381.8125 769.1875 C376.3045597 776.21275384 371.09316299 783.40214989 365.9921875 790.7265625 C362.90789851 795.15273069 359.73716902 799.51344576 356.5625 803.875 C350.37613471 812.39917673 344.4242943 821.07299213 338.50830078 829.78613281 C336.71663644 832.4159179 334.90622673 835.03232008 333.09399414 837.64794922 C321.44077103 854.48950962 309.94647456 871.49480643 299.25 888.96240234 C297.29359082 892.15150215 295.31919251 895.32942225 293.34741211 898.5090332 C291.67828259 901.2023734 290.01282474 903.8979595 288.34765625 906.59375 C286.17947758 910.10107934 283.99980541 913.60076831 281.80859375 917.09375 C273.81641382 929.86183463 266.22918992 942.83884615 258.76074219 955.91943359 C257.16182933 958.71686599 255.55546788 961.50980987 253.9453125 964.30078125 C241.66393884 985.62321327 229.79602859 1007.17115969 218.52587891 1029.04541016 C216.89402079 1032.20520966 215.2507628 1035.35889561 213.60546875 1038.51171875 C201.76383774 1061.22171851 190.2636953 1084.04723263 179.59819031 1107.33586121 C177.80642461 1111.24821104 176.00272303 1115.15479621 174.19085693 1119.05787659 C133.79180673 1206.12543181 100.49487467 1296.67441316 48.75878906 1487.57421875 C47.80927399 1491.8610899 46.80229339 1496.1331332 45.79199219 1500.40600586 C42.9699463 1512.37514493 40.41516487 1524.39333257 37.9375 1536.4375 C37.69750778 1537.59886475 37.69750778 1537.59886475 37.45266724 1538.78369141 C32.57434642 1562.44240076 28.36113268 1586.20808669 24.5625 1610.0625 C24.37023834 1611.2662326 24.17797668 1612.46996521 23.97988892 1613.71017456 C18.69025617 1646.87557466 13.84830274 1679.97032711 10.64367676 1713.40625 C10.08407146 1719.22264953 9.45937483 1725.03020935 8.81079102 1730.83740234 C6.14103942 1754.79706968 3.94582322 1778.83895819 3.2109375 1802.94140625 C3.09471218 1806.40119082 2.85033945 1809.82062309 2.51171875 1813.265625 C1.8712315 1819.89631035 1.65637291 1826.53161075 1.4375 1833.1875 C1.39431641 1834.42564453 1.35113281 1835.66378906 1.30664062 1836.93945312 C1.20169508 1839.95955262 1.09953456 1842.97971816 1 1846 C0.67 1846 0.34 1846 0 1846 C0 1236.82 0 627.64 0 0 Z " fill="#FEFEFE" transform="translate(1,1)"/>
<path d="M0 0 C1267.2 0 2534.4 0 3840 0 C3840 1267.2 3840 2534.4 3840 3840 C2572.8 3840 1305.6 3840 0 3840 C0 2572.8 0 1305.6 0 0 Z M1 1 C0.97128812 337.82606006 0.97128812 337.82606006 0.95183504 674.65212035 C0.95172566 677.26756691 0.95161624 679.88301347 0.95150678 682.49846002 C0.9514519 683.80986963 0.95139703 685.12127924 0.95134049 686.47242853 C0.94943109 732.0625083 0.94746052 777.65258808 0.94537232 823.24266785 C0.94516971 827.6688035 0.94496852 832.09493914 0.94476856 836.52107479 C0.94167805 904.93063528 0.93777864 973.34019559 0.93133545 1041.74975586 C0.93126701 1042.47694751 0.93119858 1043.20413916 0.93112807 1043.95336692 C0.92885122 1068.13392992 0.92649675 1092.31449291 0.92413156 1116.4950559 C0.92199469 1138.34379624 0.91988572 1160.19253658 0.91786861 1182.04127693 C0.91780233 1182.75909611 0.91773605 1183.4769153 0.91766776 1184.21648658 C0.91352047 1229.21010944 0.91058259 1274.20373225 0.90886021 1319.19735527 C0.90883342 1319.89286575 0.90880664 1320.58837623 0.90877904 1321.30496279 C0.90760339 1351.85869311 0.90667921 1382.41242344 0.9060421 1412.96615378 C0.90578457 1425.26067634 0.90548984 1437.5551989 0.90517473 1449.84972145 C0.90512279 1451.88814285 0.90507206 1453.92656425 0.90502146 1455.96498564 C0.90423989 1487.10394562 0.90263436 1518.24290528 0.89860606 1549.38186502 C0.89851936 1550.0521561 0.89843266 1550.72244718 0.89834334 1551.4130501 C0.89694377 1562.19394743 0.89547475 1572.97484475 0.89399374 1583.75574207 C0.88790987 1628.04309036 0.8848816 1672.33043763 0.88637601 1716.61778636 C0.88657907 1722.65847012 0.88674646 1728.69915388 0.88689232 1734.73983765 C0.8869222 1735.92388436 0.88695208 1737.10793108 0.88698287 1738.327858 C0.8873621 1757.0043277 0.88439153 1775.68079526 0.87999014 1794.35726438 C0.87572186 1812.7657043 0.8750773 1831.17414149 0.87816819 1849.58258167 C0.87972167 1859.41215164 0.8797511 1869.24171514 0.87511682 1879.07128431 C0.85796487 1917.05827261 0.84778578 1955.02595264 2 1993 C1.67 1993 1.34 1993 1 1993 C1 2602.18 1 3211.36 1 3839 C342.19530273 3839.02870448 342.19530273 3839.02870448 683.39060569 3839.04816496 C686.03761338 3839.04827434 688.68462108 3839.04838375 691.33162877 3839.04849322 C691.99470607 3839.04852063 692.65778338 3839.04854804 693.34095394 3839.04857629 C740.15454863 3839.05051216 786.96814331 3839.05250925 833.78173799 3839.05462768 C838.26177517 3839.05483029 842.74181234 3839.05503148 847.22184952 3839.05523144 C916.50619652 3839.05832384 985.79054335 3839.06222693 1055.07489014 3839.06866455 C1056.18057921 3839.0687672 1056.18057921 3839.0687672 1057.30860545 3839.06887193 C1081.82123259 3839.07114894 1106.33385972 3839.07350335 1130.84648686 3839.07586844 C1152.99467074 3839.07800516 1175.14285462 3839.08011409 1197.29103851 3839.08213139 C1198.38241868 3839.08223081 1198.38241868 3839.08223081 1199.49584693 3839.08233224 C1245.06454539 3839.08647617 1290.63324382 3839.08941601 1336.20194244 3839.09113979 C1336.90577524 3839.09116658 1337.60960804 3839.09119336 1338.3347691 3839.09122096 C1369.24603825 3839.0923963 1400.1573074 3839.09332061 1431.06857656 3839.0939579 C1443.5045911 3839.09421545 1455.94060563 3839.09451018 1468.37662016 3839.09482527 C1470.4385969 3839.09487721 1472.50057364 3839.09492794 1474.56255038 3839.09497854 C1506.10275785 3839.09576114 1537.64296499 3839.09737299 1569.18317223 3839.10139394 C1570.20342491 3839.10152399 1570.20342491 3839.10152399 1571.24428877 3839.10165666 C1582.18574238 3839.10305643 1593.12719598 3839.10452538 1604.06864958 3839.10600626 C1648.91135657 3839.1120755 1693.7540628 3839.11512251 1738.59677027 3839.11362399 C1744.69739277 3839.1134209 1750.79801527 3839.11325352 1756.89863777 3839.11310768 C1758.09455072 3839.1130778 1759.29046368 3839.11304792 1760.52261641 3839.11301713 C1779.47171507 3839.11263624 1798.42081164 3839.11562309 1817.36990972 3839.12000986 C1835.99552284 3839.12425271 1854.62113326 3839.12494153 1873.24674664 3839.12183181 C1884.17097735 3839.12011557 1895.09519951 3839.12114479 1906.01942923 3839.126217 C1913.27386365 3839.12931257 1920.52829194 3839.12878263 1927.78272617 3839.12530107 C1931.89558496 3839.12342897 1936.00842711 3839.12309632 1940.12128463 3839.12723524 C1943.86087331 3839.13096923 1947.60043175 3839.13000957 1951.34001928 3839.12547626 C1953.2961033 3839.12426315 1955.25218856 3839.12789575 1957.20826906 3839.13180115 C1964.91773132 3839.11662676 1972.55151511 3838.77938459 1980.23809818 3838.23669963 C1985.48854957 3837.90634016 1990.73816924 3837.78669211 1995.99766541 3837.68395996 C2015.10089199 3837.28559356 2034.10372597 3836.11393217 2053.15313721 3834.67181396 C2057.02547132 3834.38056378 2060.8985205 3834.0991342 2064.77148438 3833.81640625 C2076.85211162 3832.93093596 2088.93058221 3832.029128 2101 3831 C2100.40849655 3831.04567108 2099.8169931 3831.09134216 2099.20756531 3831.13839722 C2096.32978801 3831.36055736 2093.45200434 3831.58263474 2090.57421875 3831.8046875 C2089.49276077 3831.88813919 2088.4113028 3831.97159088 2087.29707336 3832.05757141 C2081.34333793 3832.51674978 2075.38951804 3832.97479599 2069.43554688 3833.4309082 C2068.24671906 3833.52198349 2067.05789124 3833.61305878 2065.83303833 3833.70689392 C2063.45647449 3833.88894653 2061.07990793 3834.07096367 2058.70333862 3834.25294495 C2052.64128373 3834.71787885 2046.57994363 3835.18992541 2040.51953125 3835.67578125 C2025.02186198 3836.90248632 2009.53944664 3837.56426492 1994 3838 C1994 3838.33 1994 3838.66 1994 3839 C2602.85 3839 3211.7 3839 3839 3839 C3839.02870112 3517.26428426 3839.02870112 3517.26428426 3839.04816496 3195.52856827 C3839.04827434 3193.03354088 3839.04838376 3190.5385135 3839.04849322 3188.04348612 C3839.0485481 3186.79245531 3839.04860297 3185.5414245 3839.04865951 3184.25248367 C3839.05057012 3140.75800949 3839.05253967 3097.26353531 3839.05462768 3053.76906114 C3839.05483029 3049.54603933 3839.05503148 3045.32301753 3839.05523144 3041.09999572 C3839.0583247 2975.77257595 3839.06222945 2910.44515636 3839.06866455 2845.11773682 C3839.06873299 2844.42243722 3839.06880142 2843.72713763 3839.06887193 2843.01076835 C3839.07114901 2819.88831409 3839.0735034 2796.76585983 3839.07586844 2773.64340558 C3839.07800509 2752.75155681 3839.080114 2731.85970805 3839.08213139 2710.96785927 C3839.08219767 2710.28157424 3839.08226395 2709.59528921 3839.08233224 2708.88820766 C3839.08647465 2665.92212187 3839.08941538 2622.95603613 3839.09113979 2579.98995018 C3839.09117997 2578.99486307 3839.09117997 2578.99486307 3839.09122096 2577.9796732 C3839.09242252 2548.19454294 3839.09334785 2518.40941268 3839.09400098 2488.62428241 C3839.09426262 2476.91052599 3839.09456324 2465.19676957 3839.09487724 2453.48301315 C3839.09491067 2452.20096721 3839.0949441 2450.91892126 3839.09497854 2449.59802543 C3839.09607625 2408.24173414 3839.1003516 2366.88544393 3839.10628221 2325.52915307 C3839.1122384 2283.89360184 3839.11510162 2242.25805165 3839.11362399 2200.62249998 C3839.11342089 2194.8776967 3839.11325351 2189.13289342 3839.11310768 2183.38809013 C3839.1130778 2182.26187846 3839.11304792 2181.1356668 3839.11301713 2179.9753275 C3839.11263548 2162.09397671 3839.11562967 2144.21262812 3839.12000986 2126.33127793 C3839.12424125 2108.77719666 3839.12495016 2091.22311825 3839.12183181 2073.66903672 C3839.12010863 2063.35882465 3839.1211679 2053.04862163 3839.126217 2042.7384106 C3839.12929255 2035.90840716 3839.12880393 2029.07841026 3839.12530107 2022.24840703 C3839.12341297 2018.36548524 3839.12314445 2014.48258115 3839.12723524 2010.59966065 C3839.13158075 2006.44305542 3839.12831885 2002.28649265 3839.1241985 1998.12988722 C3839.12670737 1996.91330865 3839.12921625 1995.69673007 3839.13180115 1994.44328548 C3839.12827181 1992.80023613 3839.12827181 1992.80023613 3839.12467116 1991.12399385 C3839.12473517 1990.17528831 3839.12479918 1989.22658278 3839.12486512 1988.24912859 C3839.1472401 1985.96369159 3839.1472401 1985.96369159 3838 1984 C3838.08761507 1981.7265249 3838.24195511 1979.45554737 3838.42480469 1977.18774414 C3839.15070504 1967.12492427 3839.18184733 1957.08103196 3839.203125 1946.99609375 C3839.2099321 1944.96882104 3839.21678964 1942.9415485 3839.22369385 1940.91427612 C3839.23936339 1935.53044434 3839.245847 1930.14664353 3839.24838257 1924.76279068 C3839.249462 1922.54356979 3839.25119271 1920.32434912 3839.25357056 1918.10512924 C3839.29291254 1880.64271379 3838.38180424 1843.38582013 3836 1806 C3836.66 1818.87 3837.32 1831.74 3838 1845 C3838.33 1845 3838.66 1845 3839 1845 C3839 1236.48 3839 627.96 3839 1 C3518.50395614 0.97129862 3518.50395614 0.97129862 3198.00791204 0.95183504 C3195.52242026 0.95172566 3193.03692848 0.95161624 3190.55143671 0.95150678 C3189.30518716 0.9514519 3188.0589376 0.95139703 3186.77492291 0.95134049 C3143.4467604 0.94942989 3100.11859788 0.94746033 3056.79043537 0.94537232 C3052.58356947 0.94516971 3048.37670357 0.94496852 3044.16983767 0.94476856 C2979.09371407 0.94167537 2914.01759065 0.93777074 2848.94146729 0.93133545 C2848.24886325 0.93126701 2847.55625921 0.93119858 2846.84266717 0.93112807 C2823.80991142 0.928851 2800.77715568 0.92649661 2777.74439993 0.92413156 C2756.93357685 0.9219949 2736.12275376 0.919886 2715.31193066 0.91786861 C2714.62830496 0.91780233 2713.94467926 0.91773605 2713.24033763 0.91766776 C2670.43952105 0.91352523 2627.63870451 0.91058457 2584.83788776 0.90886021 C2584.17702941 0.90883342 2583.51617106 0.90880664 2582.8352867 0.90877904 C2553.16360815 0.90757746 2523.4919296 0.90665215 2493.82025103 0.90599902 C2482.15103947 0.90573738 2470.48182791 0.90543677 2458.81261635 0.90512276 C2456.89686264 0.90507262 2456.89686264 0.90507262 2454.94240684 0.90502146 C2413.74614183 0.90392383 2372.54987789 0.89964872 2331.3536133 0.89371779 C2289.87781269 0.8877611 2248.40201311 0.88489853 2206.92621206 0.88637601 C2201.20293728 0.88657911 2195.47966249 0.88674649 2189.75638771 0.88689232 C2188.63440038 0.8869222 2187.51241304 0.88695208 2186.3564261 0.88698287 C2168.54497344 0.88736446 2150.733523 0.88437083 2132.92207095 0.87999014 C2115.43491489 0.87575786 2097.94776171 0.87505051 2080.46060538 0.87816819 C2070.19081452 0.87989083 2059.92103273 0.87883387 2049.65124291 0.873783 C2042.84673326 0.87070591 2036.04223016 0.87119773 2029.23772072 0.87469893 C2025.37011681 0.87658578 2021.50253069 0.87685923 2017.6349281 0.87276476 C2013.49300512 0.86841358 2009.35112469 0.87168426 2005.20920151 0.8758015 C2003.99974659 0.87329263 2002.79029167 0.87078375 2001.54418659 0.86819885 C1999.9037881 0.87172819 1999.9037881 0.87172819 1998.23025025 0.87532884 C1997.28519309 0.87526483 1996.34013593 0.87520082 1995.36644067 0.87513488 C1992.84837351 0.90287506 1992.84837351 0.90287506 1990 2 C1987.38348979 1.91368795 1984.80098734 1.76757948 1982.19213867 1.57519531 C1971.4351278 0.88463362 1960.7017588 0.81890892 1949.92578125 0.796875 C1947.81337973 0.78993992 1945.70097841 0.7829448 1943.58857727 0.77589417 C1936.82988284 0.75663889 1930.07121861 0.75197114 1923.3125 0.75 C1921.58682423 0.74889536 1921.58682423 0.74889536 1919.82628632 0.7477684 C1881.7855507 0.72791506 1843.96131833 1.43918758 1806 4 C1803.94922912 4.13492338 1801.89844806 4.26969209 1799.84765625 4.40429688 C1788.91809649 5.12947031 1777.99731681 5.94143564 1767.08001709 6.8314209 C1763.70617987 7.10486021 1760.33157918 7.36829027 1756.95703125 7.6328125 C1751.30367409 8.07642054 1745.65170672 8.53592735 1740 9 C1775.31757928 5.68649 1810.54342175 3.16282072 1846 2 C1846 1.67 1846 1.34 1846 1 C1237.15 1 628.3 1 1 1 Z " fill="#6F7171" transform="translate(0,0)"/>
<path d="M0 0 C0.99 0.495 0.99 0.495 2 1 C-19.12 22.12 -40.24 43.24 -62 65 C-62.66 64.67 -63.32 64.34 -64 64 C-63.32795532 63.33581055 -63.32795532 63.33581055 -62.64233398 62.65820312 C-60.57129904 60.60823317 -58.50439303 58.55414567 -56.4375 56.5 C-55.73302734 55.80390625 -55.02855469 55.1078125 -54.30273438 54.390625 C-50.16059529 50.26757412 -46.24400136 46.06165561 -42.52758789 41.54882812 C-41 40 -41 40 -38 39 C-37.29879046 37.68450489 -36.63496481 36.34871862 -36 35 C-34.62158203 33.48632812 -34.62158203 33.48632812 -33.0078125 32.03125 C-32.39421875 31.46929932 -31.780625 30.90734863 -31.1484375 30.32836914 C-30.48070312 29.72500732 -29.81296875 29.12164551 -29.125 28.5 C-19.11559034 19.30175402 -9.56259225 9.65851332 0 0 Z " fill="#4595C4" transform="translate(601,524)"/>
</svg>
